<?xml version="1.0" encoding="UTF-8" standalone="no" ?>
<!DOCTYPE svg PUBLIC "-//W3C//DTD SVG 1.1//EN" "http://www.w3.org/Graphics/SVG/1.1/DTD/svg11.dtd">
<svg xmlns="http://www.w3.org/2000/svg" xmlns:xlink="http://www.w3.org/1999/xlink" version="1.1" width="640" height="640" viewBox="0 0 640 640" xml:space="preserve">
<desc>Created with Fabric.js 5.3.0</desc>
<defs>
</defs>
<g transform="matrix(0.6407206216 1.9719353091 1.024410856 -0.3328512641 251.2923338883 376.3413844873)" id="ccy8wxZm9v3kl_5DEdil3"  >
<path style="stroke: none; stroke-width: 1; stroke-dasharray: none; stroke-linecap: butt; stroke-dashoffset: 0; stroke-linejoin: miter; stroke-miterlimit: 4; fill: rgb(87,155,87); fill-rule: nonzero; opacity: 1;"  transform=" translate(-40, -40)" d="M 0 0 L 80 80 L 0 80 L 0 0 z" stroke-linecap="round" />
</g>
<g transform="matrix(-1.0095070235 0 0 1.0114085669 253.9057715323 245.3446404189)" id="X3JwR9YPlUfAnVag-lGNZ"  >
<path style="stroke: rgb(0,0,0); stroke-width: 0; stroke-dasharray: none; stroke-linecap: butt; stroke-dashoffset: 0; stroke-linejoin: miter; stroke-miterlimit: 4; fill: rgb(96,205,85); fill-rule: nonzero; opacity: 1;"  transform=" translate(0, 0)" d="M -66.78438 -65.97879 L 66.78437 65.97879 L -12.85466000000001 40.765170000000005 z" stroke-linecap="round" />
</g>
<g transform="matrix(-0.6362957646 1.9583169995 -0.9963423143 -0.3237312421 387.4469109227 377.438553224)" id="JcQijw6-15gtmrBhLU08B"  >
<path style="stroke: none; stroke-width: 1; stroke-dasharray: none; stroke-linecap: butt; stroke-dashoffset: 0; stroke-linejoin: miter; stroke-miterlimit: 4; fill: rgb(2,9,2); fill-rule: nonzero; opacity: 1;"  transform=" translate(-40, -40)" d="M 0 0 L 80 80 L 0 80 L 0 0 z" stroke-linecap="round" />
</g>
<g transform="matrix(-1.3315979793 0 0 -2.0842216172 320 369.6028412416)" id="aB6dcHXbal3dEQ2djRszK"  >
<path style="stroke: none; stroke-width: 1; stroke-dasharray: none; stroke-linecap: butt; stroke-dashoffset: 0; stroke-linejoin: miter; stroke-miterlimit: 4; fill: rgb(32,83,32); fill-rule: nonzero; opacity: 1;"  transform=" translate(-40, -40)" d="M 60 40 L 80 80 L 40 80 L 0 80 L 20 40 L 40 0 L 60 40 z" stroke-linecap="round" />
</g>
<g transform="matrix(1.0095070235 0 0 1 386.1494559237 246.0973638698)" id="WdBD7SODhT8j3o7cpMKGm"  >
<path style="stroke: rgb(0,0,0); stroke-width: 0; stroke-dasharray: none; stroke-linecap: butt; stroke-dashoffset: 0; stroke-linejoin: miter; stroke-miterlimit: 4; fill: rgb(20,118,10); fill-rule: nonzero; opacity: 1;"  transform=" translate(0, 0)" d="M -66.78438 -65.97879 L 66.78437 65.97879 L -12.85466000000001 40.765170000000005 z" stroke-linecap="round" />
</g>
<g transform="matrix(1.3315979793 0 0 1.317826641 320 233.490551836)" id="NUBs75bqILSiisY8xsdJ2"  >
<path style="stroke: none; stroke-width: 1; stroke-dasharray: none; stroke-linecap: butt; stroke-dashoffset: 0; stroke-linejoin: miter; stroke-miterlimit: 4; fill: rgb(55,203,55); fill-rule: nonzero; opacity: 1;"  transform=" translate(-40, -40)" d="M 60 40 L 80 80 L 40 80 L 0 80 L 20 40 L 40 0 L 60 40 z" stroke-linecap="round" />
</g>
<g transform="matrix(1.5016149959 1.5016149959 -1.5016149959 1.5016149959 320 312.0761548642)" id="66Q5RrCHkFPkQ1W8KVfA1"  >
<path style="stroke: rgb(0,0,0); stroke-width: 4; stroke-dasharray: none; stroke-linecap: butt; stroke-dashoffset: 0; stroke-linejoin: miter; stroke-miterlimit: 4; fill: rgb(142,121,31); fill-opacity: 0; fill-rule: nonzero; opacity: 1;"  transform=" translate(0, 0)" d="M -45.26167 -45.26167 L 45.26167 -45.26167 L 45.26167 45.26167 L -45.26167 45.26167 z" stroke-linecap="round" />
</g>
</svg>